<?xml version="1.0" encoding="UTF-8"?>
<svg version="1.1" xmlns="http://www.w3.org/2000/svg" width="498" height="471">
<path d="M0 0 C164.34 0 328.68 0 498 0 C498 155.43 498 310.86 498 471 C333.66 471 169.32 471 0 471 C0 315.57 0 160.14 0 0 Z " fill="#E7E7E7" transform="translate(0,0)"/>
<path d="M0 0 C1.00981934 0.26490234 1.00981934 0.26490234 2.04003906 0.53515625 C18.12992243 4.91666761 32.37603672 13.24580479 45 24 C45.51401367 24.43038574 46.02802734 24.86077148 46.55761719 25.30419922 C63.78874448 39.85408974 75.13722617 58.62327968 82 80 C82.41378906 81.19625 82.82757813 82.3925 83.25390625 83.625 C86.16663922 93.53032188 86.39429983 103.37268509 86.4375 113.625 C86.44689606 114.66985062 86.44689606 114.66985062 86.45648193 115.73580933 C86.5324881 129.12096846 84.67920447 141.8499475 79.875 154.4375 C79.577146 155.22825928 79.27929199 156.01901855 78.97241211 156.83374023 C74.18622666 169.08799369 67.70248374 180.11694676 59 190 C58.31421875 190.81726563 57.6284375 191.63453125 56.921875 192.4765625 C37.24395321 215.3397594 8.84573318 229.17637867 -21 232 C-41.60408461 233.46819752 -62.15080139 230.6423008 -81 222 C-81.6295459 221.71141113 -82.2590918 221.42282227 -82.90771484 221.12548828 C-111.41580938 207.69581521 -132.76010912 182.80749804 -143.53344727 153.43505859 C-153.77684092 123.88298025 -152.37875671 91.63809337 -139.11181641 63.25878906 C-125.00784358 34.60486798 -100.4482387 12.02925193 -70.125 1.6875 C-47.0393613 -5.70127358 -23.45593399 -6.25491573 0 0 Z " fill="#E6E6E6" transform="translate(279,76)"/>
<path d="M0 0 C1.00981934 0.26490234 1.00981934 0.26490234 2.04003906 0.53515625 C18.12992243 4.91666761 32.37603672 13.24580479 45 24 C45.51401367 24.43038574 46.02802734 24.86077148 46.55761719 25.30419922 C63.78874448 39.85408974 75.13722617 58.62327968 82 80 C82.41378906 81.19625 82.82757813 82.3925 83.25390625 83.625 C86.16663922 93.53032188 86.39429983 103.37268509 86.4375 113.625 C86.44689606 114.66985062 86.44689606 114.66985062 86.45648193 115.73580933 C86.5324881 129.12096846 84.67920447 141.8499475 79.875 154.4375 C79.577146 155.22825928 79.27929199 156.01901855 78.97241211 156.83374023 C74.18622666 169.08799369 67.70248374 180.11694676 59 190 C58.31421875 190.81726563 57.6284375 191.63453125 56.921875 192.4765625 C37.24395321 215.3397594 8.84573318 229.17637867 -21 232 C-41.60408461 233.46819752 -62.15080139 230.6423008 -81 222 C-81.6295459 221.71141113 -82.2590918 221.42282227 -82.90771484 221.12548828 C-111.41580938 207.69581521 -132.76010912 182.80749804 -143.53344727 153.43505859 C-153.77684092 123.88298025 -152.37875671 91.63809337 -139.11181641 63.25878906 C-125.00784358 34.60486798 -100.4482387 12.02925193 -70.125 1.6875 C-47.0393613 -5.70127358 -23.45593399 -6.25491573 0 0 Z M-92 43 C-92.73992187 43.59425781 -93.47984375 44.18851563 -94.2421875 44.80078125 C-112.71860644 60.24041853 -122.60501131 83.43331126 -125 107 C-126.62067734 132.8996705 -117.82931454 156.47799514 -101 176 C-100.20207031 176.99773437 -99.40414062 177.99546875 -98.58203125 179.0234375 C-86.88133925 192.51198108 -69.14883955 201.10057794 -52 205 C-51.20078125 205.22300781 -50.4015625 205.44601562 -49.578125 205.67578125 C-27.49402136 211.27295924 -2.50305342 205.06094761 16.75 193.8125 C23.98682544 189.39592885 30.06281414 184.01814748 36 178 C36.66515625 177.33355469 37.3303125 176.66710937 38.015625 175.98046875 C56.4080253 156.30391438 61.81531167 130.84270152 61.15820312 104.82373047 C60.83484542 99.05219472 59.61518896 93.54740494 58 88 C57.34 88 56.68 88 56 88 C55.9175 86.68773437 55.835 85.37546875 55.75 84.0234375 C55.17485146 78.91699717 53.48300779 75.07700395 51 70.625 C50.39768555 69.52091797 50.39768555 69.52091797 49.78320312 68.39453125 C46.18850832 61.9902544 41.98643793 56.39760035 37 51 C36.32710937 50.23558594 35.65421875 49.47117187 34.9609375 48.68359375 C19.59103537 32.1336055 -3.98695646 21.72150208 -26.42578125 20.76171875 C-50.79349829 20.21085281 -73.14062632 27.14866262 -92 43 Z " fill="#E5E5E5" transform="translate(279,76)"/>
<path d="M0 0 C11.1697687 8.7307125 19.76993681 21.45751356 21.8359375 35.7734375 C22.71746562 50.45593858 21.12633901 63.21011196 12.8359375 75.7734375 C12.34480469 76.52238281 11.85367188 77.27132812 11.34765625 78.04296875 C3.07905514 89.62690396 -10.13440778 97.1951876 -23.8984375 100.265625 C-39.24879209 102.65264186 -53.29275503 99.44757949 -66.1640625 90.7734375 C-78.2804569 81.43166459 -86.88137354 69.14354316 -89.1640625 53.7734375 C-89.32866693 50.66819722 -89.34914296 47.57005276 -89.3515625 44.4609375 C-89.36380859 43.64431641 -89.37605469 42.82769531 -89.38867188 41.98632812 C-89.42272482 27.74084763 -83.24972325 15.03805105 -73.4140625 4.88671875 C-52.65737197 -14.60871454 -23.33618727 -16.42176141 0 0 Z " fill="#4C4C4C" transform="translate(281.1640625,145.2265625)"/>
<path d="M0 0 C2.69540315 -0.26686213 5.15847464 -0.34818073 7.8515625 -0.29296875 C8.62559418 -0.28872391 9.39962585 -0.28447906 10.19711304 -0.28010559 C12.67342677 -0.26328998 15.14893158 -0.22563395 17.625 -0.1875 C19.30207159 -0.17245682 20.97915592 -0.15876778 22.65625 -0.14648438 C26.77114581 -0.11337721 30.88543569 -0.06157637 35 0 C34.78100586 2.32397461 34.78100586 2.32397461 34 5 C31.97094727 6.45922852 31.97094727 6.45922852 29.50390625 7.81640625 C26.18588864 10.24164242 25.14068473 11.41456998 24.16748047 15.46435547 C23.78728357 19.62308129 23.85769036 23.76382335 23.9375 27.9375 C23.958125 32.908125 23.97875 37.87875 24 43 C39.18 43 54.36 43 70 43 C69.67 31.78 69.34 20.56 69 9 C65.7 8.01 62.4 7.02 59 6 C58.505 4.02 58.505 4.02 58 2 C60 0 60 0 63.43994141 -0.22705078 C64.91051979 -0.22673369 66.38112142 -0.21540987 67.8515625 -0.1953125 C68.62559418 -0.1924826 69.39962585 -0.18965271 70.19711304 -0.18673706 C72.67323157 -0.17552754 75.1489905 -0.15042203 77.625 -0.125 C79.30207812 -0.11497118 80.97916189 -0.10584516 82.65625 -0.09765625 C86.77097223 -0.07558574 90.88542511 -0.04105102 95 0 C94.78086853 2.32420349 94.78086853 2.32420349 94 5 C91.97218323 6.45716858 91.97218323 6.45716858 89.50610352 7.81274414 C86.27713914 10.19503056 85.15486142 11.38684338 84.16061401 15.32345581 C83.86178276 19.57146369 83.8297586 23.74183907 83.90234375 27.99609375 C83.89668537 29.55552541 83.88706748 31.11494727 83.87367249 32.67433167 C83.84913259 36.76031495 83.87807197 40.84420411 83.91845703 44.92999268 C83.95017422 49.10639466 83.93089811 53.28253447 83.91601562 57.45898438 C83.89432755 65.63991853 83.92917907 73.81934592 84 82 C87.63 82.99 91.26 83.98 95 85 C94.67 86.65 94.34 88.3 94 90 C82.45 90 70.9 90 59 90 C60 85 60 85 62.02905273 83.52319336 C63.25023804 82.8446228 63.25023804 82.8446228 64.49609375 82.15234375 C67.76193391 79.7652456 68.85007727 78.60698922 69.83251953 74.62939453 C70.10993214 70.57447026 70.14293453 66.62760467 70.0625 62.5625 C70.041875 57.756875 70.02125 52.95125 70 48 C54.82 48 39.64 48 24 48 C24 59.22 24 70.44 24 82 C28.455 82.99 28.455 82.99 33 84 C33.99 84.33 34.98 84.66 36 85 C35.34 86.65 34.68 88.3 34 90 C22.45 90 10.9 90 -1 90 C-1 86 -1 86 0.8984375 84.078125 C1.71570313 83.47484375 2.53296875 82.8715625 3.375 82.25 C4.18710937 81.63640625 4.99921875 81.0228125 5.8359375 80.390625 C8 79 8 79 10 79 C9.67 55.9 9.34 32.8 9 9 C5.7 8.01 2.4 7.02 -1 6 C-1.33 5.01 -1.66 4.02 -2 3 C-1.34 2.01 -0.68 1.02 0 0 Z " fill="#494949" transform="translate(252,338)"/>
<path d="M0 0 C11.55 0 23.1 0 35 0 C33.875 5.625 33.875 5.625 29.9375 8.3125 C29.20402344 8.82425781 28.47054687 9.33601563 27.71484375 9.86328125 C27.14894531 10.23839844 26.58304688 10.61351562 26 11 C27.28535535 15.30447349 28.92407389 18.80609742 31.3359375 22.58984375 C32.31433594 24.13768555 32.31433594 24.13768555 33.3125 25.71679688 C34.3334375 27.31104492 34.3334375 27.31104492 35.375 28.9375 C36.71734404 31.05002036 38.05852111 33.16328276 39.3984375 35.27734375 C40.02459961 36.26460449 40.65076172 37.25186523 41.29589844 38.26904297 C43.29097839 41.46631579 45.17200631 44.7049242 47 48 C50.75238168 43.57595096 53.7540396 38.78638569 56.8125 33.875 C57.87616597 32.17830008 58.93996753 30.48168515 60.00390625 28.78515625 C60.77178467 27.55756592 60.77178467 27.55756592 61.55517578 26.30517578 C63.43958984 23.29864697 65.34249757 20.30443121 67.25 17.3125 C67.79140625 16.46300781 68.3328125 15.61351562 68.890625 14.73828125 C69.25671875 14.16464844 69.6228125 13.59101563 70 13 C65.89615002 10.26410001 61.45816092 8.89213773 56.8359375 7.21875 C54 6 54 6 53 4 C53.66 2.68 54.32 1.36 55 0 C66.55 0 78.1 0 90 0 C89 5 89 5 87.18847656 6.40966797 C86.43018555 6.80814941 85.67189453 7.20663086 84.890625 7.6171875 C78.97540657 11.2902342 76.18080672 16.19551787 72.75 22.125 C71.46468177 24.30039372 70.17555627 26.473542 68.8828125 28.64453125 C68.24118164 29.72299316 67.59955078 30.80145508 66.93847656 31.91259766 C65.14637791 34.7668646 63.24396395 37.41306237 61.1796875 40.07421875 C50.9744649 53.48460265 50.11961986 65.38352874 51 82 C51.92039063 82.14308594 52.84078125 82.28617187 53.7890625 82.43359375 C57.00854053 83.00150654 59.92573209 83.90204717 63 85 C62.34 86.65 61.68 88.3 61 90 C49.45 90 37.9 90 26 90 C26.33 88.35 26.66 86.7 27 85 C29.06640625 83.71875 29.06640625 83.71875 31.5625 82.5 C34.2164309 80.56173586 35.71583564 79.07522311 36.56689453 75.85498047 C37.95414305 65.81666862 37.25605248 56.66507671 31.12207031 48.39501953 C30.24261754 47.25333846 29.35771731 46.11583906 28.46826172 44.98193359 C25.48201574 40.95094842 22.97770198 36.59641791 20.375 32.3125 C19.25375666 30.5044931 18.13139501 28.69717915 17.0078125 26.890625 C15.27383262 24.08933403 13.56727645 21.28051746 11.9296875 18.421875 C8.23918748 12.1394424 4.44487204 8.46357069 -2 5 C-1.34 3.35 -0.68 1.7 0 0 Z " fill="#4B4B4B" transform="translate(137,338)"/>
<path d="M0 0 C1.00981934 0.26490234 1.00981934 0.26490234 2.04003906 0.53515625 C18.12992243 4.91666761 32.37603672 13.24580479 45 24 C45.51401367 24.43038574 46.02802734 24.86077148 46.55761719 25.30419922 C63.78874448 39.85408974 75.13722617 58.62327968 82 80 C82.41378906 81.19625 82.82757813 82.3925 83.25390625 83.625 C86.16663922 93.53032188 86.39429983 103.37268509 86.4375 113.625 C86.44689606 114.66985062 86.44689606 114.66985062 86.45648193 115.73580933 C86.5324881 129.12096846 84.67920447 141.8499475 79.875 154.4375 C79.577146 155.22825928 79.27929199 156.01901855 78.97241211 156.83374023 C74.18622666 169.08799369 67.70248374 180.11694676 59 190 C58.31421875 190.81726563 57.6284375 191.63453125 56.921875 192.4765625 C37.24395321 215.3397594 8.84573318 229.17637867 -21 232 C-41.60408461 233.46819752 -62.15080139 230.6423008 -81 222 C-81.6295459 221.71141113 -82.2590918 221.42282227 -82.90771484 221.12548828 C-111.41580938 207.69581521 -132.76010912 182.80749804 -143.53344727 153.43505859 C-153.77684092 123.88298025 -152.37875671 91.63809337 -139.11181641 63.25878906 C-125.00784358 34.60486798 -100.4482387 12.02925193 -70.125 1.6875 C-47.0393613 -5.70127358 -23.45593399 -6.25491573 0 0 Z M-112 30 C-112.72574219 30.64324219 -113.45148438 31.28648438 -114.19921875 31.94921875 C-127.65195222 44.52875248 -136.47972067 61.00598846 -142.375 78.25 C-142.61387939 78.94585205 -142.85275879 79.6417041 -143.09887695 80.35864258 C-146.57945876 91.16570421 -147.36473949 101.95134447 -147.3125 113.25 C-147.30686035 114.52907227 -147.3012207 115.80814453 -147.29541016 117.12597656 C-146.86763801 150.45832084 -132.22019753 177.69492168 -109.046875 200.9609375 C-87.18092407 221.21070945 -56.57497032 231.17428755 -27.10351562 230.109375 C5.58988891 228.40943939 34.35784991 213.61830532 56.38964844 189.79980469 C78.35698499 165.2480756 85.47628008 134.13951692 84 102 C81.31015581 70.84113379 64.94272754 44.3750678 42 24 C-3.2018859 -13.86151762 -69.71374304 -8.58404021 -112 30 Z " fill="#5A5A5A" transform="translate(279,76)"/>
<path d="M0 0 C17.52622888 16.36949778 28.67454772 38.84076393 29.61328125 62.9296875 C30.01817921 81.09409934 27.27259118 95.84213533 19.328125 112.16796875 C18.65136719 113.63363281 18.65136719 113.63363281 17.9609375 115.12890625 C7.17510063 136.89204455 -14.04779164 152.2074543 -36.61328125 159.9140625 C-60.54107975 167.56156334 -86.22324957 165.52311515 -108.671875 154.16796875 C-117.61439966 149.29539375 -125.3604958 143.25499155 -132.671875 136.16796875 C-133.58839844 135.36166016 -133.58839844 135.36166016 -134.5234375 134.5390625 C-143.8579565 126.0356993 -150.00036242 113.69823389 -154.671875 102.16796875 C-155.15914062 101.10835938 -155.64640625 100.04875 -156.1484375 98.95703125 C-163.95750547 79.1944179 -161.95259545 52.35959413 -153.671875 33.16796875 C-153.39923828 32.5136084 -153.12660156 31.85924805 -152.84570312 31.18505859 C-142.08870418 5.93706647 -121.30748171 -11.01656169 -96.421875 -21.15625 C-63.08795713 -32.59352539 -25.75808304 -23.23207823 0 0 Z M-125.671875 -1.83203125 C-126.41179687 -1.23777344 -127.15171875 -0.64351562 -127.9140625 -0.03125 C-146.39048144 15.40838728 -156.27688631 38.60128001 -158.671875 62.16796875 C-160.29255234 88.06763925 -151.50118954 111.64596389 -134.671875 131.16796875 C-133.87394531 132.16570312 -133.07601562 133.1634375 -132.25390625 134.19140625 C-120.55321425 147.67994983 -102.82071455 156.26854669 -85.671875 160.16796875 C-84.87265625 160.39097656 -84.0734375 160.61398437 -83.25 160.84375 C-61.16589636 166.44092799 -36.17492842 160.22891636 -16.921875 148.98046875 C-9.68504956 144.5638976 -3.60906086 139.18611623 2.328125 133.16796875 C2.99328125 132.50152344 3.6584375 131.83507812 4.34375 131.1484375 C22.7361503 111.47188313 28.14343667 86.01067027 27.48632812 59.99169922 C27.16297042 54.22016347 25.94331396 48.71537369 24.328125 43.16796875 C23.668125 43.16796875 23.008125 43.16796875 22.328125 43.16796875 C22.245625 41.85570312 22.163125 40.5434375 22.078125 39.19140625 C21.50297646 34.08496592 19.81113279 30.2449727 17.328125 25.79296875 C16.72581055 24.68888672 16.72581055 24.68888672 16.11132812 23.5625 C12.51663332 17.15822315 8.31456293 11.5655691 3.328125 6.16796875 C2.65523437 5.40355469 1.98234375 4.63914062 1.2890625 3.8515625 C-14.08083963 -12.69842575 -37.65883146 -23.11052917 -60.09765625 -24.0703125 C-84.46537329 -24.62117844 -106.81250132 -17.68336863 -125.671875 -1.83203125 Z " fill="#616161" transform="translate(312.671875,120.83203125)"/>
<path d="M0 0 C0.94660961 2.83982882 1.12867774 4.61855329 1.1328125 7.5625 C1.13474609 8.88121094 1.13474609 8.88121094 1.13671875 10.2265625 C1.13285156 11.14179688 1.12898438 12.05703125 1.125 13 C1.13080078 14.37285156 1.13080078 14.37285156 1.13671875 15.7734375 C1.13542969 16.65257812 1.13414062 17.53171875 1.1328125 18.4375 C1.13168457 19.24058594 1.13055664 20.04367188 1.12939453 20.87109375 C1 23 1 23 0 26 C-7.26 25.34 -14.52 24.68 -22 24 C-22 16.74 -22 9.48 -22 2 C-17.9471875 1.505 -17.9471875 1.505 -13.8125 1 C-12.97050049 0.89558594 -12.12850098 0.79117188 -11.26098633 0.68359375 C-7.48419412 0.23107901 -3.81248055 -0.12224387 0 0 Z " fill="#E3E3E3" transform="translate(273,177)"/>
<path d="M0 0 C10.395 0.99 10.395 0.99 21 2 C21 9.26 21 16.52 21 24 C10.605 24.99 10.605 24.99 0 26 C-1.24084307 23.51831386 -1.12933103 21.83573801 -1.1328125 19.0625 C-1.13410156 18.08539063 -1.13539063 17.10828125 -1.13671875 16.1015625 C-1.13285156 15.07804688 -1.12898437 14.05453125 -1.125 13 C-1.12886719 11.97648438 -1.13273438 10.95296875 -1.13671875 9.8984375 C-1.13542969 8.92132813 -1.13414062 7.94421875 -1.1328125 6.9375 C-1.13168457 6.03902344 -1.13055664 5.14054688 -1.12939453 4.21484375 C-1 2 -1 2 0 0 Z " fill="#E5E5E5" transform="translate(222,177)"/>
<path d="M0 0 C8.42104177 1.44360716 14.11652948 11.36227212 18.85058594 17.88427734 C27.98861492 30.88741991 34.05940447 44.61661679 38 60 C38.2925769 61.0991272 38.2925769 61.0991272 38.59106445 62.22045898 C40.29067922 69.4394802 40.33825348 76.6560317 40.31567383 84.02954102 C40.31253058 86.16670636 40.33599022 88.30245947 40.36132812 90.43945312 C40.42189539 103.25266126 38.46826912 115.40262168 33.875 127.4375 C33.577146 128.22825928 33.27929199 129.01901855 32.97241211 129.83374023 C28.19073062 142.07646202 21.7147955 153.13983138 13 163 C12.20980469 163.91007813 11.41960937 164.82015625 10.60546875 165.7578125 C4.53269009 172.64487327 4.53269009 172.64487327 1 175 C1.49095624 170.6418192 2.69086254 168.94396207 5.9375 166.0625 C25.04194529 147.59285432 36.45693638 120.02986001 37.203125 93.56640625 C37.60173354 62.99541614 29.84178431 32.26637249 7.91796875 9.75390625 C5.99688574 7.83038338 4.04028201 5.96846349 2.0546875 4.109375 C0 2 0 2 0 0 Z " fill="#5F5F5F" transform="translate(325,103)"/>
<path d="M0 0 C4.46638226 11.15676556 4.02048676 22.80534192 0 34 C-2.90094791 35.45047396 -4.55972596 34.45356803 -7.625 33.5625 C-8.62789063 33.27503906 -9.63078125 32.98757812 -10.6640625 32.69140625 C-11.43492187 32.46324219 -12.20578125 32.23507813 -13 32 C-12.835 30.80375 -12.67 29.6075 -12.5 28.375 C-11.53440394 19.65704701 -11.35430671 10.63988976 -13 2 C-11.39935157 1.46845258 -9.79431126 0.95011647 -8.1875 0.4375 C-7.29417969 0.14746094 -6.40085937 -0.14257812 -5.48046875 -0.44140625 C-3 -1 -3 -1 0 0 Z " fill="#E1E1E1" transform="translate(293,173)"/>
<path d="M0 0 C5.94 1.485 5.94 1.485 12 3 C12 12.9 12 22.8 12 33 C8.04 33.99 4.08 34.98 0 36 C-2.97603911 24.46784845 -5.63778793 11.27557586 0 0 Z " fill="#E3E3E3" transform="translate(202,172)"/>
<path d="M0 0 C0.66 0.99 1.32 1.98 2 3 C1.443125 3.680625 0.88625 4.36125 0.3125 5.0625 C-8.1578855 15.82217888 -13.95878929 27.29706556 -18.375 40.25 C-18.61371826 40.94561035 -18.85243652 41.6412207 -19.09838867 42.35791016 C-22.58018655 53.1647056 -23.36473934 63.95137653 -23.3125 75.25 C-23.30686035 76.52907227 -23.3012207 77.80814453 -23.29541016 79.12597656 C-23.04502671 98.63605337 -18.23690413 116.34729513 -8.5402832 133.26782227 C-6 137.72214475 -6 137.72214475 -6 141 C-6.66 141 -7.32 141 -8 141 C-26.10230329 112.17737165 -31.23990927 78.97174999 -23.73193359 45.83251953 C-19.37503796 28.97171128 -10.7974222 13.56599199 0 0 Z " fill="#5F5F5F" transform="translate(156,114)"/>
<path d="M0 0 C8.41425354 5.60950236 15.04825655 12.53861424 19 22 C19 22.99 19 23.98 19 25 C12.43686385 26.19329748 6.96308479 26 0 26 C0 17.42 0 8.84 0 0 Z " fill="#E1E1E1" transform="translate(251,145)"/>
<path d="M0 0 C13.5 0 13.5 0 19 1 C17.36091286 9.30979062 11.08354274 17.3106393 5 23 C3.35 23.99 1.7 24.98 0 26 C0 17.42 0 8.84 0 0 Z " fill="#E2E2E2" transform="translate(251,209)"/>
<path d="M0 0 C14.31371863 16.16978324 15.18171687 40.61809427 14 61 C13.04236534 72.23240648 8.8683437 81.99558101 4 92 C3.32324219 93.46566406 3.32324219 93.46566406 2.6328125 94.9609375 C-5.09014376 110.54394393 -19.36932249 124.50043251 -35 132 C-35.66 131.34 -36.32 130.68 -37 130 C-36.27296875 129.62230469 -35.5459375 129.24460937 -34.796875 128.85546875 C-13.81119838 117.36715604 0.91068427 97.74488798 8 75 C10.60237411 66.02810538 11.2671088 57.47855676 11.3125 48.1875 C11.31805908 47.23311035 11.32361816 46.2787207 11.3293457 45.29541016 C11.27294694 39.73748047 10.6942071 34.5991895 9.42651367 29.18481445 C9 27 9 27 9 23 C8.34 23 7.68 23 7 23 C6.773125 21.72125 6.54625 20.4425 6.3125 19.125 C5.28550052 14.37981263 3.37670767 10.4853626 1.0234375 6.26171875 C0 4 0 4 0 0 Z " fill="#656565" transform="translate(328,141)"/>
<path d="M0 0 C0 8.25 0 16.5 0 25 C-14.46428571 25.13392857 -14.46428571 25.13392857 -18 24 C-16.99528219 16.9415394 -8.27928164 0 0 0 Z " fill="#E2E2E2" transform="translate(243,146)"/>
<path d="M0 0 C0 8.25 0 16.5 0 25 C-8.15522051 20.92238975 -14.57182107 12.42401758 -18 4 C-18 3.01 -18 2.02 -18 1 C-11.78300769 -0.38155385 -6.74953003 0 0 0 Z " fill="#E3E3E3" transform="translate(243,209)"/>
<path d="M0 0 C2.96341004 2.51889853 3.8341401 4.13384274 4.5625 7.9375 C3.77590045 12.22009755 2.03113127 13.89669894 -1 17 C-4.09173752 18.54586876 -6.59429552 18.29359521 -10 18 C-12.4375 16.5 -12.4375 16.5 -14 14 C-14.61089984 9.18916379 -14.73857492 7.1571007 -12.125 3.0625 C-8.5257014 -0.43093688 -4.87692764 -0.84816133 0 0 Z " fill="#4A4A4A" transform="translate(230,411)"/>
<path d="M0 0 C2.96341004 2.51889853 3.8341401 4.13384274 4.5625 7.9375 C3.77590045 12.22009755 2.03113127 13.89669894 -1 17 C-4.12860495 18.56430248 -6.55602925 18.35627284 -10 18 C-13.19688909 15.29494 -13.90802205 13.64384566 -14.5 9.5 C-13.9231981 5.46238667 -12.85349783 3.85349783 -10 1 C-6.78447181 -0.60776409 -3.47794 -0.60485913 0 0 Z " fill="#4A4A4A" transform="translate(378,411)"/>
<path d="M0 0 C1.640625 2.625 1.640625 2.625 3.25 6 C6.41434175 12.22572227 10.09066958 17.06516656 15 22 C14.34 22.33 13.68 22.66 13 23 C3.33081782 19.7096844 -6.24827032 12.7171687 -11.3046875 3.6640625 C-11.53414062 3.11492187 -11.76359375 2.56578125 -12 2 C-10.75579353 1.4654744 -9.50429064 0.94791389 -8.25 0.4375 C-7.55390625 0.14746094 -6.8578125 -0.14257812 -6.140625 -0.44140625 C-3.52365327 -1.12430216 -2.43583534 -1.21300671 0 0 Z " fill="#DBDBDB" transform="translate(218,213)"/>
<path d="M0 0 C7.625 0.875 7.625 0.875 11 2 C10.04628243 8.02638926 5.34252218 12.06238867 1 16 C-3.3864246 19.12708842 -8.07560036 21.82227745 -13 24 C-13.66 23.67 -14.32 23.34 -15 23 C-14.25556641 22.26910156 -14.25556641 22.26910156 -13.49609375 21.5234375 C-7.28010295 15.03616058 -3.67834219 8.080858 0 0 Z " fill="#DCDCDC" transform="translate(277,212)"/>
<path d="M0 0 C-0.59167969 0.75023437 -1.18335938 1.50046875 -1.79296875 2.2734375 C-6.689956 8.6163541 -10.65558573 14.66386547 -14 22 C-17.3 21.34 -20.6 20.68 -24 20 C-24 15.24076451 -21.08671017 12.45370756 -18 9 C-15.47450453 6.76021715 -12.8224299 4.84711146 -10 3 C-9.35289062 2.57332031 -8.70578125 2.14664063 -8.0390625 1.70703125 C-3.42863082 -1.14287694 -3.42863082 -1.14287694 0 0 Z " fill="#DEDEDE" transform="translate(231,146)"/>
<path d="M0 0 C5.11413726 5.03522476 9.66745526 10.65303836 13.64550781 16.62011719 C13.27050781 18.80761719 13.27050781 18.80761719 12.64550781 20.62011719 C12.24460937 20.01425781 11.84371094 19.40839844 11.43066406 18.78417969 C-2.07532533 -1.12260739 -19.39563682 -14.35882612 -42.35449219 -21.37988281 C-43.46308594 -21.72019531 -44.57167969 -22.06050781 -45.71386719 -22.41113281 C-58.62133595 -25.62312965 -72.15723208 -24.64927104 -85.35449219 -24.37988281 C-58.98921208 -38.25616257 -19.09710927 -17.80720722 0 0 Z " fill="#5B5B5B" transform="translate(314.3544921875,122.3798828125)"/>
<path d="M0 0 C11.16129924 3.39904867 18.72793606 10.07601042 26 19 C25.67 19.99 25.34 20.98 25 22 C22.93359375 22.73046875 22.93359375 22.73046875 20.4375 23.1875 C19.61121094 23.34605469 18.78492188 23.50460938 17.93359375 23.66796875 C17.29550781 23.77753906 16.65742188 23.88710937 16 24 C15.64808594 23.31035156 15.29617188 22.62070313 14.93359375 21.91015625 C11.50321303 15.38078929 7.66056769 9.6987571 3 4 C1.99374786 2.67137876 0.99183092 1.33942122 0 0 Z " fill="#DEDEDE" transform="translate(262,144)"/>
<path d="M0 0 C0.33 0 0.66 0 1 0 C1.14695313 1.0415625 1.29390625 2.083125 1.4453125 3.15625 C4.28500695 21.82839404 10.65575632 38.18904821 23.046875 52.6875 C25 55 25 55 27 58 C21.52867854 57.08414836 19.14836954 53.28917551 16 49 C10.7330913 40.73916412 6.37790708 32.21138492 3 23 C2.59523437 21.91589844 2.19046875 20.83179688 1.7734375 19.71484375 C-0.62097019 12.75151527 -1.50548754 7.2492498 0 0 Z " fill="#626262" transform="translate(154,197)"/>
<path d="M0 0 C1.78270527 2.6740579 2.57220467 4.44696793 3.47265625 7.45703125 C3.73240234 8.32263672 3.99214844 9.18824219 4.25976562 10.08007812 C4.52466797 10.98177734 4.78957031 11.88347656 5.0625 12.8125 C5.33126953 13.70259766 5.60003906 14.59269531 5.87695312 15.50976562 C8.01226309 22.69314006 9.15386113 29.28134956 9.09765625 36.8046875 C9.0962413 37.5286673 9.09482635 38.25264709 9.09336853 38.99856567 C9.08781075 41.29075407 9.07526633 43.58284157 9.0625 45.875 C9.05747953 47.43749858 9.05291759 48.99999871 9.04882812 50.5625 C9.03785519 54.37503835 9.0206201 58.18750212 9 62 C8.67 62 8.34 62 8 62 C8 52.76 8 43.52 8 34 C7.34 34 6.68 34 6 34 C5.81824219 32.88882813 5.63648438 31.77765625 5.44921875 30.6328125 C4.21552837 23.27700604 2.89674151 16.1937346 0.5625 9.09375 C-0.27551946 5.97445536 -0.20931906 3.20955896 0 0 Z " fill="#5F5F5F" transform="translate(356,144)"/>
<path d="M0 0 C13.29678533 3.73243097 31.07319686 12.10979529 39 24 C34.96663322 24 33.20959407 21.95707179 30.25 19.5 C20.55727731 11.75520948 9.68169279 6.17792307 -2 2 C-1.34 1.34 -0.68 0.68 0 0 Z " fill="#585858" transform="translate(287,79)"/>
<path d="M0 0 C3.65625157 4.09113612 5.62270377 8.22299365 7.625 13.25 C8.08338257 14.38562378 8.08338257 14.38562378 8.55102539 15.54418945 C11.35522168 22.63814294 13.39735307 29.2516151 13 37 C12.34 37 11.68 37 11 37 C10.66179834 35.4176994 10.32964061 33.83410625 10 32.25 C9.7215625 30.92742187 9.7215625 30.92742187 9.4375 29.578125 C9 27 9 27 9 23 C8.34 23 7.68 23 7 23 C6.773125 21.72125 6.54625 20.4425 6.3125 19.125 C5.28550052 14.37981263 3.37670767 10.4853626 1.0234375 6.26171875 C0 4 0 4 0 0 Z " fill="#707070" transform="translate(328,141)"/>
<path d="M0 0 C1.47533203 0.19916016 1.47533203 0.19916016 2.98046875 0.40234375 C14.63785186 1.90771557 26.2579332 2.5638333 38 3 C38 3.66 38 4.32 38 5 C24.92690067 5.35249646 12.75721684 5.07050491 0 2 C0 1.34 0 0.68 0 0 Z " fill="#4F4F4F" transform="translate(220,303)"/>
<path d="M0 0 C0.99 0.33 1.98 0.66 3 1 C-8.58874864 7.26418845 -19.74755996 11.46884008 -33 12 C-33.33 11.34 -33.66 10.68 -34 10 C-32.5459375 9.77957031 -32.5459375 9.77957031 -31.0625 9.5546875 C-20.23593235 7.78702903 -9.8587244 4.9293622 0 0 Z " fill="#5C5C5C" transform="translate(290,272)"/>
<path d="M0 0 C0.33 0 0.66 0 1 0 C1.02474682 4.91129185 1.04288223 9.82254727 1.05493164 14.73388672 C1.05995569 16.40414055 1.06677605 18.07438999 1.07543945 19.74462891 C1.08758946 22.14747196 1.09324763 24.55025679 1.09765625 26.953125 C1.10281754 27.69806213 1.10797882 28.44299927 1.11329651 29.21051025 C1.11366364 32.61502191 1.07330918 35.74664759 0 39 C-0.66 39 -1.32 39 -2 39 C-2.33 39.99 -2.66 40.98 -3 42 C-2.85552017 40.49986903 -2.70932785 38.99990298 -2.5625 37.5 C-2.48128906 36.6646875 -2.40007812 35.829375 -2.31640625 34.96875 C-2.08388616 32.78708001 -1.80494465 30.61023061 -1.5 28.4375 C-0.78768023 22.81343276 -0.64402738 17.16088167 -0.4375 11.5 C-0.39431641 10.39140625 -0.35113281 9.2828125 -0.30664062 8.140625 C-0.20137786 5.42718494 -0.09924154 2.71366583 0 0 Z " fill="#555555" transform="translate(363,178)"/>
<path d="M0 0 C0.33 0 0.66 0 1 0 C1.18175781 1.12277344 1.36351562 2.24554688 1.55078125 3.40234375 C2.84903656 11.20232433 4.30024467 18.5435329 7 26 C7 26.99 7 27.98 7 29 C6.34 29 5.68 29 5 29 C-2.09785933 9.14067278 -2.09785933 9.14067278 0 0 Z " fill="#676767" transform="translate(154,197)"/>
<path d="M0 0 C0.33 0 0.66 0 1 0 C1.91045727 4.63104563 2.13279048 9.10177427 2.09765625 13.8046875 C2.09553383 14.8906572 2.09553383 14.8906572 2.09336853 15.99856567 C2.08781075 18.29075407 2.07526633 20.58284157 2.0625 22.875 C2.05747953 24.43749858 2.05291759 25.99999871 2.04882812 27.5625 C2.03785519 31.37503835 2.0206201 35.18750212 2 39 C1.67 39 1.34 39 1 39 C1 29.76 1 20.52 1 11 C0.34 11 -0.32 11 -1 11 C-0.67 7.37 -0.34 3.74 0 0 Z " fill="#707070" transform="translate(363,167)"/>
<path d="M0 0 C-1.5255906 3.65141356 -3.72480909 5.90118112 -6.5625 8.625 C-9.69042054 11.51070681 -9.69042054 11.51070681 -12 15 C-12.66 15 -13.32 15 -14 15 C-13.5694933 10.58993138 -10.5782946 8.16999427 -7.5625 5.25 C-7.05912109 4.74339844 -6.55574219 4.23679687 -6.03710938 3.71484375 C-2.26719382 0 -2.26719382 0 0 0 Z " fill="#565656" transform="translate(171,101)"/>
<path d="M0 0 C3.09709467 1.37195861 5.15870525 2.93792501 7.5 5.375 C8.09941406 5.99246094 8.69882813 6.60992187 9.31640625 7.24609375 C10.14978516 8.11427734 10.14978516 8.11427734 11 9 C11.804375 9.804375 12.60875 10.60875 13.4375 11.4375 C13.953125 11.953125 14.46875 12.46875 15 13 C11.30165104 13 10.72918572 12.18635778 8.0625 9.75 C7.36253906 9.11191406 6.66257813 8.47382813 5.94140625 7.81640625 C5.30074219 7.21699219 4.66007813 6.61757813 4 6 C2.7625 4.8553125 2.7625 4.8553125 1.5 3.6875 C0 2 0 2 0 0 Z " fill="#565656" transform="translate(161,269)"/>
<path d="M0 0 C0.99 0 1.98 0 3 0 C3.50904657 1.87256417 4.00682455 3.74819341 4.5 5.625 C4.7784375 6.66914063 5.056875 7.71328125 5.34375 8.7890625 C5.99118596 11.95687418 6.1161292 14.77741467 6 18 C5.34 18 4.68 18 4 18 C3.66179834 16.4176994 3.32964061 14.83410625 3 13.25 C2.814375 12.36828125 2.62875 11.4865625 2.4375 10.578125 C2 8 2 8 2 4 C1.34 4 0.68 4 0 4 C0 2.68 0 1.36 0 0 Z " fill="#757575" transform="translate(335,160)"/>
<path d="M0 0 C0.99 0.66 1.98 1.32 3 2 C1.02 5.63 -0.96 9.26 -3 13 C-3.66 12.01 -4.32 11.02 -5 10 C-3.35 6.7 -1.7 3.4 0 0 Z " fill="#696969" transform="translate(353,236)"/>
<path d="M0 0 C3.59905908 0.55550695 4.99909799 1.74887248 7.25 4.5625 C8.03117187 5.52349609 8.03117187 5.52349609 8.828125 6.50390625 C9.21484375 6.99761719 9.6015625 7.49132812 10 8 C9.34 8.66 8.68 9.32 8 10 C6.66070495 8.71451591 5.32871357 7.42141845 4 6.125 C2.88625 5.04605469 2.88625 5.04605469 1.75 3.9453125 C0 2 0 2 0 0 Z " fill="#676767" transform="translate(325,103)"/>
<path d="M0 0 C1.60294922 0.01353516 1.60294922 0.01353516 3.23828125 0.02734375 C4.04652344 0.03894531 4.85476562 0.05054687 5.6875 0.0625 C5.6875 0.3925 5.6875 0.7225 5.6875 1.0625 C-1.07735645 2.6745509 -7.36208914 3.32868595 -14.3125 3.0625 C-9.64620504 -0.0483633 -5.51601549 -0.06061555 0 0 Z " fill="#4E4E4E" transform="translate(234.3125,72.9375)"/>
<path d="M0 0 C0.33 0 0.66 0 1 0 C1.53132389 2.58157368 2.05034379 5.16461756 2.5625 7.75 C2.78969727 8.84441406 2.78969727 8.84441406 3.02148438 9.9609375 C3.74557178 13.66557073 4.09817231 16.39322322 3 20 C-0.26071108 16.73928892 -0.48617447 12.47483495 -1 8 C-0.88907332 5.23127 -0.50646931 2.73493426 0 0 Z " fill="#696969" transform="translate(132,204)"/>
<path d="M0 0 C1.61323505 4.03308763 0.20687236 6.97709214 -1 11 C-1.4292212 13.6639707 -1.71734314 16.31475987 -2 19 C-2.33 19 -2.66 19 -3 19 C-4.16642429 12.70130882 -4.04660474 7.13981421 -2 1 C-1.34 0.67 -0.68 0.34 0 0 Z " fill="#696969" transform="translate(135,156)"/>
<path d="M0 0 C0.99 0.33 1.98 0.66 3 1 C2.06725891 2.12894876 1.12859878 3.25300876 0.1875 4.375 C-0.33457031 5.00148438 -0.85664063 5.62796875 -1.39453125 6.2734375 C-3 8 -3 8 -6 10 C-5.58578031 5.16743695 -3.53586014 3.17320782 0 0 Z " fill="#686868" transform="translate(332,268)"/>
<path d="M0 0 C3.72433382 1.2125738 7.37802806 2.50859979 11 4 C11 4.66 11 5.32 11 6 C6.64477147 5.49357808 3.55760365 4.61588503 0 2 C0 1.34 0 0.68 0 0 Z " fill="#565656" transform="translate(189,291)"/>
<path d="M0 0 C4.12751449 0.60698743 7.3321148 2.03810791 11 4 C10.67 4.66 10.34 5.32 10 6 C6.51329166 4.8905928 3.22515763 3.73662334 0 2 C0 1.34 0 0.68 0 0 Z " fill="#676767" transform="translate(200,271)"/>
<path d="M0 0 C0 0.99 0 1.98 0 3 C-3.78187881 4.83691257 -5.94568308 5.15837626 -10 4 C-6.86268382 1.90845588 -3.85464592 0 0 0 Z " fill="#5E5E5E" transform="translate(294,296)"/>
<path d="M0 0 C2.93200474 2.85276137 5.64315404 5.65079784 8 9 C4.21304827 8.4590069 2.37254028 6.96567536 0 4 C0 2.68 0 1.36 0 0 Z " fill="#6D6D6D" transform="translate(173,246)"/>
<path d="M0 0 C2.74277578 3.19990508 4.6302836 6.00499382 6 10 C5.01 10 4.02 10 3 10 C0.39749195 6.62637846 -0.36265043 4.23092172 0 0 Z " fill="#636363" transform="translate(345,124)"/>
<path d="M0 0 C-1 3 -1 3 -3.9375 4.6875 C-7 6 -7 6 -9 6 C-8 3 -8 3 -5.0625 1.3125 C-2 0 -2 0 0 0 Z " fill="#535353" transform="translate(303,292)"/>
<path d="M0 0 C0.33 0 0.66 0 1 0 C1.33 3.96 1.66 7.92 2 12 C1.01 12.495 1.01 12.495 0 13 C-1.28571429 4.57142857 -1.28571429 4.57142857 0 0 Z " fill="#757575" transform="translate(154,197)"/>
<path d="M0 0 C0.66 0 1.32 0 2 0 C1.67 4.29 1.34 8.58 1 13 C0.67 13 0.34 13 0 13 C-0.19658808 11.58456585 -0.38187546 10.16755969 -0.5625 8.75 C-0.66691406 7.96109375 -0.77132812 7.1721875 -0.87890625 6.359375 C-1.00027349 3.99467126 -0.69633257 2.2488963 0 0 Z " fill="#707070" transform="translate(154,170)"/>
<path d="M0 0 C0.33 0 0.66 0 1 0 C0.67 2.97 0.34 5.94 0 9 C-0.66 9 -1.32 9 -2 9 C-2.33 9.99 -2.66 10.98 -3 12 C-2.49202991 7.6822542 -1.80317221 3.96697886 0 0 Z " fill="#585858" transform="translate(137,147)"/>
<path d="M0 0 C3.99455527 0.61454696 6.74466336 2.70646737 10 5 C9.34 5.66 8.68 6.32 8 7 C6.66144944 6.21718695 5.32926356 5.42348123 4 4.625 C3.2575 4.18414062 2.515 3.74328125 1.75 3.2890625 C1.1725 2.86367187 0.595 2.43828125 0 2 C0 1.34 0 0.68 0 0 Z " fill="#636363" transform="translate(293,108)"/>
<path d="M0 0 C4.97631579 4.81578947 4.97631579 4.81578947 5.0625 9.125 C5.041875 10.07375 5.02125 11.0225 5 12 C3.20931427 9.3139714 2.33944209 7.3373411 1.375 4.3125 C1.11460937 3.50425781 0.85421875 2.69601563 0.5859375 1.86328125 C0.39257812 1.24839844 0.19921875 0.63351563 0 0 Z " fill="#626262" transform="translate(332,151)"/>
<path d="M0 0 C-2.85306797 2.32472205 -5.54074837 3.7508258 -9 5 C-9 4.01 -9 3.02 -9 2 C-3.375 -1.125 -3.375 -1.125 0 0 Z " fill="#686868" transform="translate(211,104)"/>
<path d="M0 0 C2.31 0.66 4.62 1.32 7 2 C6.01 3.485 6.01 3.485 5 5 C2.69 4.01 0.38 3.02 -2 2 C-1.34 1.34 -0.68 0.68 0 0 Z " fill="#606060" transform="translate(200,296)"/>
<path d="M0 0 C2.91517292 1.07401108 4.77810176 1.77810176 7 4 C6.01 4.33 5.02 4.66 4 5 C1.3125 3.5625 1.3125 3.5625 -1 2 C-0.67 1.34 -0.34 0.68 0 0 Z " fill="#616161" transform="translate(304,87)"/>
<path d="M0 0 C0.66 0.33 1.32 0.66 2 1 C0.25 6.75 0.25 6.75 -2 9 C-2.33 8.34 -2.66 7.68 -3 7 C-2.06421005 4.64018187 -1.06652192 2.30368736 0 0 Z " fill="#6D6D6D" transform="translate(162,147)"/>
</svg>
